<svg width="248" height="159" viewBox="0 0 248 159" fill="none" xmlns="http://www.w3.org/2000/svg">
<path d="M246.252 8.22474C245.758 6.8172 245.033 5.53386 244.114 4.4499L116.945 154.55C117.862 155.637 118.956 156.504 120.166 157.098C121.377 157.692 122.68 158 123.998 158C125.315 158 126.618 157.692 127.829 157.098C129.04 156.504 130.134 155.636 131.05 154.55L244.113 20.8704C245.032 19.7864 245.758 18.5029 246.252 17.0951C246.746 15.6873 247 14.1804 247 12.6599C247 11.1395 246.746 9.63251 246.252 8.22474ZM3.88136 20.8699L116.945 154.55L245.781 16.9295C246.256 15.5761 246.5 14.1252 246.5 12.6599C246.5 11.1946 246.256 9.74372 245.781 8.39032C245.306 7.03691 244.609 5.8076 243.732 4.77279C242.857 3.73536 241.817 2.91227 240.672 2.35067C239.528 1.78907 238.301 1.5 237.061 1.5C235.822 1.5 234.595 1.78907 233.45 2.35067C232.305 2.91227 231.266 3.73536 230.39 4.77279L230.009 4.44994L230.009 4.4501C230.008 4.45019 230.008 4.45028 230.008 4.45038L123.998 129.814L17.9864 4.44994L17.6422 4.74105L17.9864 4.4499C16.1324 2.25785 13.5981 1.00583 10.9339 1.00583C8.26964 1.00583 5.73535 2.25785 3.88136 4.4499C2.0295 6.63944 1.00002 9.59362 1.00002 12.6599C1.00002 15.7262 2.0295 18.6804 3.88136 20.8699Z" fill="#5FC3C8" stroke="#5FC3C8"/>
</svg>
