<svg width="178" height="23" viewBox="0 0 178 23" fill="none" xmlns="http://www.w3.org/2000/svg">
<path d="M18.2972 2.136H3.29716V6.912H18.4172V7.8H10.7612V11.472H19.8092V12.36H0.777156V11.472H9.77716V7.8H2.28916V1.248H18.2972V2.136ZM1.85716 19.104C1.85716 18.144 2.33716 17.352 3.27316 16.776C4.66516 15.912 7.04116 15.456 10.3292 15.456C13.6172 15.456 15.9692 15.912 17.3852 16.776C18.3212 17.352 18.8012 18.144 18.8012 19.104C18.8012 20.04 18.3212 20.832 17.3852 21.432C15.9692 22.296 13.6172 22.728 10.3292 22.728C7.04116 22.728 4.66516 22.296 3.27316 21.432C2.33716 20.832 1.85716 20.04 1.85716 19.104ZM2.88916 19.104C2.88916 19.704 3.20116 20.256 3.84916 20.688C5.02516 21.432 7.20916 21.864 10.3292 21.864C13.4732 21.864 15.6572 21.432 16.8092 20.688C17.4812 20.256 17.7692 19.704 17.7692 19.104C17.7692 18.504 17.4812 17.928 16.8092 17.52C15.6572 16.752 13.4732 16.32 10.3292 16.32C7.20916 16.32 5.02516 16.752 3.84916 17.52C3.20116 17.928 2.88916 18.504 2.88916 19.104ZM26.6482 20.592H22.2802V1.248H23.2882V19.68H26.6722C28.4002 19.68 29.9842 19.536 31.1602 18.912V19.776C30.0802 20.4 28.4482 20.592 26.6482 20.592ZM28.5202 10.224V9.336H33.3922V1.08H34.3522V21.816H33.3922V10.224H28.5202ZM39.3202 22.08H38.3122V0.959999H39.3202V22.08ZM42.8713 7.152C42.8713 5.064 43.5433 3.36 44.7673 2.328C45.6793 1.536 46.9273 1.08 48.3913 1.08C49.8793 1.08 51.1513 1.536 52.0393 2.328C53.2633 3.36 53.9353 5.064 53.9353 7.152C53.9353 9.24 53.2633 10.92 52.0393 11.976C51.2473 12.672 50.1433 13.128 48.8713 13.2V19.92H52.3753C54.7513 19.92 56.7913 19.344 58.1113 18.24V0.935999H59.1433V10.176H62.7433V11.088H59.1433V22.104H58.1113V19.152C56.8153 20.28 54.7273 20.808 52.2793 20.808H42.2713V19.92H47.8393V13.2C46.6153 13.104 45.5593 12.672 44.7673 11.976C43.5433 10.92 42.8713 9.24 42.8713 7.152ZM43.9033 7.152C43.9033 8.904 44.4073 10.344 45.3913 11.232C46.1593 11.928 47.1913 12.312 48.3913 12.312C49.6393 12.312 50.6473 11.928 51.4153 11.232C52.3993 10.344 52.9273 8.904 52.9273 7.152C52.9273 5.4 52.3993 3.936 51.4153 3.048C50.6473 2.352 49.6393 1.992 48.3913 1.992C47.1913 1.992 46.1593 2.352 45.3913 3.048C44.4073 3.936 43.9033 5.4 43.9033 7.152ZM77.4318 11.112H67.6878V1.248H77.5278V2.136H68.6958V10.2H77.5758C79.9518 10.2 81.9438 9.792 83.2878 8.736V0.959999H84.2958V6.168H87.7278V7.08H84.2958V12.96H83.2878V9.648C82.0158 10.704 79.9278 11.112 77.4318 11.112ZM68.6958 18.408C68.6958 17.28 69.2718 16.344 70.2558 15.648C71.6718 14.664 73.9278 14.16 76.7838 14.16C79.6398 14.16 81.8958 14.664 83.2878 15.648C84.2958 16.344 84.8718 17.28 84.8718 18.408C84.8718 19.536 84.2958 20.448 83.2878 21.168C81.8958 22.128 79.6398 22.608 76.7838 22.608C73.9278 22.608 71.6718 22.128 70.2558 21.168C69.2718 20.448 68.6958 19.536 68.6958 18.408ZM69.7278 18.408C69.7278 19.224 70.1358 19.92 70.9278 20.472C72.1038 21.264 74.1438 21.744 76.7838 21.744C79.4238 21.744 81.4638 21.264 82.6398 20.472C83.4318 19.92 83.8398 19.224 83.8398 18.408C83.8398 17.568 83.4318 16.896 82.6398 16.344C81.4638 15.528 79.4238 15.072 76.7838 15.072C74.1438 15.072 72.1038 15.528 70.9278 16.344C70.1358 16.896 69.7278 17.568 69.7278 18.408ZM94.2069 1.128V5.088C94.2069 8.688 96.9669 10.992 99.6549 11.904V12.864C96.7509 11.928 94.4949 9.864 93.6789 7.656C93.0549 9.888 90.7989 12.144 87.7509 13.104V12.168C90.5349 11.232 93.1989 8.664 93.1989 5.088V1.128H94.2069ZM105.535 15.6H104.527V0.959999H105.535V15.6ZM105.967 22.176H90.0069V15.648H91.0389V21.264H105.967V22.176ZM109.59 4.104C109.59 3.288 109.926 2.664 110.67 2.16C111.918 1.32 114.294 0.935999 118.062 0.935999C121.83 0.935999 124.206 1.32 125.454 2.16C126.174 2.664 126.534 3.288 126.534 4.104C126.534 4.896 126.174 5.544 125.454 6.024C124.206 6.864 121.83 7.272 118.062 7.272C114.294 7.272 111.918 6.864 110.67 6.024C109.926 5.544 109.59 4.896 109.59 4.104ZM110.622 4.104C110.622 4.632 110.838 5.04 111.366 5.4C112.374 6.072 114.486 6.408 118.062 6.408C121.638 6.408 123.774 6.072 124.758 5.4C125.286 5.04 125.502 4.632 125.502 4.104C125.502 3.576 125.286 3.144 124.758 2.808C123.774 2.112 121.638 1.8 118.062 1.8C114.486 1.8 112.374 2.112 111.366 2.808C110.838 3.144 110.622 3.576 110.622 4.104ZM108.51 10.848V9.984H127.542V10.848H108.51ZM111.03 18.552V21.432H126.582V22.296H110.022V17.712H125.022V14.76H110.022V13.896H126.03V18.552H111.03ZM134.119 6.408C134.119 4.536 134.743 3.048 135.847 2.088C136.759 1.272 138.031 0.816 139.519 0.816C141.007 0.816 142.279 1.272 143.215 2.088C144.295 3.048 144.943 4.536 144.943 6.408C144.943 8.256 144.295 9.744 143.215 10.728C142.279 11.52 141.007 11.976 139.519 11.976C138.031 11.976 136.759 11.52 135.847 10.728C134.743 9.744 134.119 8.256 134.119 6.408ZM135.127 6.408C135.127 7.944 135.631 9.192 136.495 10.008C137.263 10.704 138.295 11.088 139.519 11.088C140.743 11.088 141.799 10.704 142.543 10.008C143.431 9.192 143.911 7.944 143.911 6.408C143.911 4.848 143.431 3.6 142.543 2.784C141.799 2.088 140.743 1.704 139.519 1.704C138.295 1.704 137.263 2.088 136.495 2.784C135.631 3.6 135.127 4.848 135.127 6.408ZM151.351 14.016H150.343V0.959999H151.351V14.016ZM143.239 17.904C141.991 20.112 138.847 21.936 134.743 22.344V21.456C138.847 21.048 142.759 18.696 142.759 15.696V14.4H143.791V15.696C143.791 18.672 147.535 21 151.783 21.456V22.344C147.583 21.912 144.535 20.112 143.239 17.904ZM164.118 20.592H155.07V1.368H164.742V2.28H156.102V19.68H164.214C166.71 19.68 169.014 18.936 170.382 17.592V0.959999H171.39V10.2H174.99V11.088H171.39V22.104H170.382V18.504C169.158 19.824 166.71 20.592 164.118 20.592ZM177.221 18.576V20.904H175.973V18.576H177.221Z" fill="black"/>
</svg>
