<svg width="203" height="53" viewBox="0 0 203 53" fill="none" xmlns="http://www.w3.org/2000/svg">
<path d="M35.404 42.032C35.5747 41.648 35.66 41.2427 35.66 40.816C35.66 39.8773 35.148 39.1947 34.124 38.768C33.1427 38.3413 31.7773 38.128 30.028 38.128C27.3827 38.128 25.0573 38.512 23.052 39.28C21.0467 40.048 19.7453 41.2213 19.148 42.8C18.9773 43.3973 18.892 43.7813 18.892 43.952C18.892 45.0187 19.5107 45.7867 20.748 46.256C22.028 46.7253 23.692 46.9173 25.74 46.832C28.2147 46.6613 30.3053 46.192 32.012 45.424C33.7613 44.656 34.892 43.5253 35.404 42.032ZM0.78 24.624L22.988 21.616V19.248L19.468 19.504L16.844 19.76C15.0947 19.888 13.6013 19.4827 12.364 18.544C11.1267 17.5627 10.508 16.3467 10.508 14.896V3.248L41.036 0.112V6.32L19.468 8.176V12.848L41.036 9.968V17.776L31.5 18.544V20.464L51.276 17.776V26.928L0.78 32.048V24.624ZM8.396 42.928C8.396 39.4293 10.124 36.8053 13.58 35.056C17.036 33.264 21.58 32.2613 27.212 32.048C32.8867 31.92 37.452 32.6667 40.908 34.288C44.4067 35.8667 46.156 38.4267 46.156 41.968C46.156 45.6373 44.2573 48.3467 40.46 50.096C36.6627 51.888 31.756 52.784 25.74 52.784C20.5347 52.784 16.332 51.9733 13.132 50.352C9.97467 48.7733 8.396 46.2987 8.396 42.928ZM72.9145 48.88V24.112L66.1305 25.008V19.568L72.9145 18.608V5.936L81.4265 4.528V48.88H72.9145ZM49.3625 7.6L57.8745 6.512V35.696L70.9305 34.48V43.632H54.4185C53.0532 43.632 51.8585 43.0133 50.8345 41.776C49.8532 40.5387 49.3625 39.0667 49.3625 37.36V7.6ZM84.4345 2.736L92.9465 1.328V51.44H84.4345V2.736ZM136.209 30.96C134.588 35.4827 133.222 38.7253 132.113 40.688C137.19 41.7973 142.225 42.9707 147.217 44.208L141.521 51.824C135.974 50.288 130.918 48.8587 126.353 47.536C123.921 49.2427 120.422 50.5867 115.857 51.568C114.065 51.952 112.401 52.144 110.865 52.144C108.774 52.144 106.94 51.824 105.361 51.184C103.825 50.5867 102.652 49.7547 101.841 48.688C101.03 47.664 100.625 46.5333 100.625 45.296C100.625 42.992 101.713 41.1787 103.889 39.856C106.108 38.4907 109.286 37.808 113.425 37.808C115.388 37.808 118.097 38.0853 121.553 38.64C122.79 36.5067 123.686 34.288 124.241 31.984L136.209 30.96ZM108.497 44.976C108.497 45.4027 108.689 45.744 109.073 46C109.5 46.256 110.097 46.384 110.865 46.384C111.889 46.384 113.19 46.064 114.769 45.424C115.281 45.168 115.836 44.8693 116.433 44.528L114.961 43.952C113.98 43.5253 112.956 43.312 111.889 43.312C110.908 43.312 110.097 43.4827 109.457 43.824C108.817 44.1227 108.497 44.5067 108.497 44.976ZM133.969 29.36V2.736L144.401 1.328V28.144L133.969 29.36ZM119.633 16.112C119.718 15.2587 119.761 14.6613 119.761 14.32C119.761 12.7413 119.462 11.5893 118.865 10.864C118.31 10.096 117.542 9.712 116.561 9.712C115.11 9.712 113.852 10.3307 112.785 11.568C111.761 12.8053 111.057 14.704 110.673 17.264C110.588 18.1173 110.545 18.6933 110.545 18.992C110.545 20.5707 110.844 21.744 111.441 22.512C112.038 23.28 112.828 23.664 113.809 23.664C115.217 23.664 116.433 23.0453 117.457 21.808C118.524 20.528 119.249 18.6293 119.633 16.112ZM101.649 17.264C101.649 12.4853 103.014 8.96533 105.745 6.704C108.518 4.44266 112.06 3.312 116.369 3.312C120.081 3.312 123.046 4.35733 125.265 6.448C127.526 8.53867 128.657 11.7387 128.657 16.048C128.657 20.8267 127.292 24.3467 124.561 26.608C121.83 28.8693 118.289 30 113.937 30C110.225 30 107.238 28.976 104.977 26.928C102.758 24.8373 101.649 21.616 101.649 17.264ZM202.214 39.088L191.398 39.344V51.44H182.886V39.6L172.198 39.856V51.44H163.686V40.048L151.718 40.368V32.944L202.214 29.936V39.088ZM161.254 15.984C161.254 11.5893 162.939 8.34666 166.31 6.256C169.68 4.12267 174.011 3.056 179.302 3.056C183.824 3.056 187.472 3.99467 190.246 5.872C193.062 7.74933 194.491 10.672 194.534 14.64C194.534 19.0347 192.848 22.2987 189.478 24.432C186.107 26.5227 181.755 27.568 176.422 27.568C171.899 27.568 168.251 26.6293 165.478 24.752C162.704 22.8747 161.296 19.952 161.254 15.984ZM172.262 15.92C172.134 16.688 172.07 17.392 172.07 18.032C172.07 19.696 172.411 20.9333 173.094 21.744C173.819 22.5547 174.8 22.96 176.038 22.96C177.915 22.96 179.536 22.2987 180.902 20.976C182.267 19.6107 183.142 17.4987 183.526 14.64C183.654 13.872 183.718 13.168 183.718 12.528C183.718 10.864 183.355 9.62666 182.63 8.816C181.947 8.00533 180.987 7.6 179.75 7.6C177.872 7.6 176.251 8.28267 174.886 9.648C173.52 11.0133 172.646 13.104 172.262 15.92Z" fill="black"/>
</svg>
