<svg width="210" height="210" viewBox="0 0 210 210" fill="none" xmlns="http://www.w3.org/2000/svg">
<g clip-path="url(#clip0_182_17)">
<path d="M6.5625 -0.0133057V-0.000180663C6.5625 -0.000180663 0 -0.000180833 0 9.62701V10.0601C0 14.247 2.78906 17.7579 6.5625 19.0836V137.812H3.38625C2.94821 137.805 2.51294 137.883 2.10543 138.044C1.69791 138.205 1.32617 138.445 1.01154 138.75C0.696909 139.054 0.445589 139.418 0.272002 139.821C0.0984149 140.223 0.00597907 140.656 0 141.094C0 142.911 1.50937 144.375 3.38625 144.375H105V166.431L82.4644 205.117C82.1086 205.864 82.0479 206.718 82.2945 207.507C82.5411 208.297 83.0768 208.964 83.7943 209.375C84.5119 209.787 85.3583 209.912 86.1643 209.726C86.9702 209.54 87.6762 209.057 88.1409 208.372L105 179.445V206.719C105 207.589 105.346 208.423 105.961 209.039C106.576 209.654 107.411 210 108.281 210C109.151 210 109.986 209.654 110.601 209.039C111.217 208.423 111.562 207.589 111.562 206.719V179.445L128.415 208.372C128.875 209.068 129.582 209.563 130.394 209.756C131.205 209.949 132.06 209.826 132.784 209.411C133.508 208.997 134.047 208.322 134.291 207.524C134.535 206.727 134.466 205.866 134.098 205.117L111.562 166.425V144.375H206.614C207.052 144.383 207.487 144.304 207.895 144.143C208.302 143.982 208.674 143.742 208.988 143.438C209.303 143.133 209.554 142.769 209.728 142.366C209.902 141.964 209.994 141.532 210 141.094C210 139.276 208.491 137.812 206.614 137.812H203.438V19.0836C207.211 17.7579 210 14.247 210 10.0601V9.61388C210 4.27857 205.492 -0.0133057 200.156 -0.0133057H6.5625ZM13.125 6.56232H200.156C202.092 6.56232 203.438 7.92732 203.438 9.61388V10.0601C203.438 11.7467 202.092 13.1117 200.156 13.1117H9.84375C7.90781 13.1117 6.5625 11.7467 6.5625 10.0601V9.62701C6.5625 7.94044 7.90781 6.57544 9.84375 6.57544H13.125V6.56232ZM13.125 19.6742H196.875V137.812H13.125V19.6742ZM59.0625 26.2498C58.8394 26.2498 58.6228 26.2958 58.3931 26.3023C57.1335 26.3173 55.8758 26.405 54.6263 26.5648C53.8191 26.6829 53.0381 26.8733 52.2441 27.0439C51.6862 27.162 51.1284 27.2276 50.5772 27.372L49.4484 27.687L47.4338 28.4417L47.46 28.4548C43.2741 30.0306 39.4546 32.4455 36.2361 35.5512C33.0175 38.6569 30.4679 42.3878 28.7438 46.5148C26.2675 52.5139 25.6229 59.1119 26.8912 65.4768C28.1595 71.8418 31.284 77.6887 35.8706 82.2804C40.4641 86.8645 46.312 89.9858 52.6771 91.2506C59.0421 92.5155 65.6392 91.8672 71.6363 89.3876C75.7575 87.6622 79.4826 85.1125 82.5826 81.8951C85.6827 78.6777 88.0923 74.8605 89.6634 70.6779L89.6766 70.7436L90.7528 67.5739C90.9497 66.8323 91.0547 66.0776 91.2056 65.3295C91.3172 64.7586 91.455 64.1942 91.5337 63.6101C91.6912 62.5011 91.7503 61.4051 91.7962 60.2961C91.8094 59.8761 91.8816 59.4758 91.8816 59.0623H91.8684C91.8667 50.3616 88.41 42.0176 82.2583 35.8646C76.1065 29.7116 67.7632 26.2533 59.0625 26.2498ZM170.625 26.2498V131.25H190.312V26.2498H170.625ZM177.188 32.8123H183.75V124.687H177.188V32.8123ZM61.6612 33.5145C67.6069 33.9214 73.2769 36.1526 77.6213 40.5036C83.4159 46.2983 85.4569 54.462 84.4134 62.4748L79.3406 61.1164C79.9313 54.9279 78.3825 48.6936 73.9069 44.2179C69.4313 39.7423 63.21 38.187 57.0216 38.7842L55.6631 33.7245C57.6508 33.4584 59.6598 33.3881 61.6612 33.5145ZM49.1663 34.8139L50.6691 40.4117C45.7866 42.3411 41.7638 45.9439 39.6572 51.0233C38.0643 54.862 37.6458 59.087 38.4549 63.1636C39.2639 67.2403 41.264 70.9853 44.2021 73.9248C47.1403 76.8644 50.8844 78.8663 54.9606 79.6773C59.0368 80.4883 63.2621 80.0719 67.1016 78.4808C72.1809 76.3808 75.7838 72.3317 77.7131 67.4558L83.2978 68.9651C81.999 72.1773 80.0764 75.1002 77.6411 77.5648C75.2058 80.0294 72.3061 81.9868 69.1097 83.3239C64.3119 85.3084 59.0337 85.8272 53.9413 84.8145C48.849 83.8019 44.1707 81.3033 40.4972 77.6342C36.8277 73.9609 34.3284 69.283 33.3146 64.1908C32.3009 59.0987 32.8181 53.8203 34.8009 49.0217C36.1393 45.8216 38.0984 42.9183 40.5652 40.4797C43.032 38.0411 45.951 36.1154 49.1663 34.8139ZM59.0887 44.6248C60.9788 44.6258 62.8502 44.9996 64.5956 45.7248C66.3411 46.45 67.9263 47.5124 69.2606 48.8511C72.0169 51.6073 73.5066 55.2692 73.5066 59.0426H73.5C73.5143 61.9024 72.6743 64.7013 71.0877 67.0806C69.5011 69.4599 67.2402 71.3112 64.5947 72.3973C61.9559 73.4983 59.0489 73.7879 56.2447 73.2292C53.4406 72.6705 50.8665 71.2887 48.8512 69.2604C46.8236 67.2446 45.4433 64.6699 44.8869 61.8654C44.3304 59.0609 44.6231 56.1542 45.7275 53.517C46.5313 51.5672 47.7548 49.8185 49.311 48.395C50.8671 46.9716 52.7177 45.9084 54.7313 45.2811L54.9741 45.2154C55.9684 44.9605 56.9868 44.811 58.0125 44.7692C58.3734 44.7429 58.7344 44.6248 59.0887 44.6248ZM144.375 65.6248V131.25H164.062V65.6248H144.375ZM150.938 72.1873H157.5V124.687H150.938V72.1873ZM118.125 78.7498V131.25H137.812V78.7498H118.125ZM124.688 85.3123H131.25V124.687H124.688V85.3123ZM32.8125 98.4373V105H39.375V98.4373H32.8125ZM45.9375 98.4373V105H78.75V98.4373H45.9375ZM91.875 98.4373V131.25H111.562V98.4373H91.875ZM98.4375 105H105V124.687H98.4375V105ZM32.8125 111.562V118.125H39.375V111.562H32.8125ZM45.9375 111.562V118.125H78.75V111.562H45.9375ZM32.8125 124.687V131.25H39.375V124.687H32.8125ZM45.9375 124.687V131.25H78.75V124.687H45.9375Z" fill="black"/>
</g>
<defs>
<clipPath id="clip0_182_17">
<rect width="210" height="210" fill="white"/>
</clipPath>
</defs>
</svg>
