<svg width="27" height="49" viewBox="0 0 27 49" fill="none" xmlns="http://www.w3.org/2000/svg">
<path d="M1.16875 44.5592L1.16878 44.5592L20.9844 24.5005L1.1692 4.44222C1.16915 4.44217 1.16911 4.44213 1.16906 4.44208C0.956607 4.22749 0.788365 3.97291 0.673675 3.69308C0.558966 3.4132 0.5 3.11337 0.5 2.81071C0.5 2.50805 0.558966 2.20823 0.673675 1.92835C0.788389 1.64846 0.956677 1.39383 1.1692 1.17921L1.16875 44.5592ZM1.16875 44.5592C0.740457 44.9928 0.500935 45.5796 0.500935 46.1902C0.500935 46.8008 0.740457 47.3877 1.16875 47.8213C1.59726 48.2551 2.17975 48.5 2.78845 48.5C3.39714 48.5 3.97964 48.2551 4.40814 47.8213L25.8308 26.132C26.0433 25.9174 26.2116 25.6627 26.3263 25.3828C26.441 25.103 26.5 24.8031 26.5 24.5005C26.5 24.1978 26.441 23.898 26.3263 23.6181M1.16875 44.5592L26.3263 23.6181M26.3263 23.6181C26.2117 23.3384 26.0436 23.0839 25.8312 22.8694L26.3263 23.6181ZM1.91055 0.677052C1.63248 0.793879 1.3803 0.964931 1.16831 1.18011L25.8308 22.869L4.40859 1.18011C4.4085 1.18002 4.40841 1.17993 4.40833 1.17984C4.19639 0.964789 3.94431 0.79383 3.66634 0.677052C3.38825 0.560221 3.08991 0.5 2.78845 0.5C2.48699 0.5 2.18865 0.560221 1.91055 0.677052Z" fill="#5FC3C8" stroke="#5FC3C8"/>
</svg>
