<svg width="185" height="210" viewBox="0 0 185 210" fill="none" xmlns="http://www.w3.org/2000/svg">
<path d="M73.4833 0.875C33.1274 0.875 0.491699 33.3769 0.491699 73.6212V205.406C0.491804 206.139 0.708108 206.854 1.11349 207.464C1.51887 208.074 2.09527 208.551 2.77043 208.834C3.44558 209.118 4.18943 209.196 4.9087 209.058C5.62796 208.921 6.29062 208.574 6.81358 208.061L57.4481 158.513C57.458 158.513 57.4679 158.513 57.4778 158.513C68.1655 147.862 73.2453 146.397 86.0824 146.397H111.266C151.629 146.397 184.25 113.895 184.25 73.6584C184.25 33.4066 151.629 0.90475 111.266 0.90475H73.4833V0.875ZM73.4833 8.3125H111.266C147.658 8.3125 176.813 37.3857 176.813 73.6212C176.813 109.864 147.658 138.93 111.266 138.93H86.0824C72.4272 138.93 63.6584 141.83 52.2195 153.225L7.9292 196.571V73.6286C7.9292 37.3931 37.0991 8.3125 73.4833 8.3125ZM88.5666 17.9589V17.9813C87.5803 17.9813 86.6344 18.373 85.937 19.0704C85.2396 19.7678 84.8478 20.7137 84.8478 21.7V36.8056C84.8478 38.0104 84.0297 40.0186 82.2447 42.4134C80.4597 44.8083 77.8714 47.5081 75.1791 50.3269C71.1331 54.5886 66.5441 59.0734 64.5211 64.4954H57.2324V48.5048C57.2324 47.5185 56.8406 46.5726 56.1432 45.8752C55.4458 45.1778 54.4999 44.786 53.5136 44.786H31.1565C30.1702 44.786 29.2244 45.1778 28.527 45.8752C27.8296 46.5726 27.4378 47.5185 27.4378 48.5048V124.397C27.4378 125.383 27.8296 126.329 28.527 127.027C29.2244 127.724 30.1702 128.116 31.1565 128.116H53.5136C54.4999 128.116 55.4458 127.724 56.1432 127.027C56.8406 126.329 57.2324 125.383 57.2324 124.397V116.498H63.0708C65.0194 119.927 68.6341 122.307 72.8139 122.307H129.168C135.044 122.307 138.926 116.751 138.926 110.928C138.88 108.956 138.378 107.021 137.461 105.275C139.11 104.22 140.465 102.764 141.4 101.043C142.335 99.3227 142.82 97.3935 142.808 95.4354C142.808 93.2785 142.206 91.2109 141.179 89.4333C144.467 87.4252 146.698 83.8329 146.698 79.7348C146.698 76.7375 145.508 74.0079 143.589 71.9626C145.501 69.9247 146.698 67.2175 146.698 64.2276C146.698 57.9876 141.551 52.8557 135.311 52.8557H115.676C113.906 52.8557 112.24 53.3019 110.738 54.0308C110.099 51.3433 109.125 48.747 107.837 46.3032V35.5933C107.837 25.7163 99.2096 17.9589 88.9905 17.9589H88.5591H88.5666ZM92.2853 26.6311C96.8668 28.007 100.407 31.1903 100.407 35.6081V46.9652C100.403 47.1944 100.421 47.4234 100.459 47.6494L100.519 47.9692C100.601 48.3727 100.749 48.7598 100.957 49.1146C104.713 55.6819 105.346 64.9119 102.467 72.3419C99.5889 79.7794 94.1075 83.8775 88.5814 83.8775H67.2135C66.2272 83.8775 65.2814 84.2693 64.584 84.9667C63.8866 85.6641 63.4948 86.61 63.4948 87.5962C63.4948 88.5825 63.8866 89.5284 64.584 90.2258C65.2814 90.9232 66.2272 91.315 67.2135 91.315H88.5814C93.6613 91.315 98.3394 89.1953 102.162 85.722C102.542 86.3393 102.98 86.912 103.471 87.4326C101.561 89.5591 100.477 92.3 100.416 95.1576C100.354 98.0153 101.32 100.8 103.137 103.007C101.829 104.656 100.954 106.605 100.59 108.678C100.226 110.751 100.386 112.881 101.054 114.877H72.8214C72.1307 114.88 71.4529 114.69 70.8642 114.329C70.2756 113.967 69.7994 113.449 69.4894 112.832C69.436 112.459 69.3177 112.099 69.1398 111.768C69.0878 111.493 68.9836 111.247 68.9836 110.943C68.9917 110.444 68.8994 109.949 68.7124 109.487C68.5254 109.025 68.2474 108.605 67.8949 108.253C67.5425 107.901 67.1227 107.623 66.6607 107.436C66.1987 107.249 65.7038 107.156 65.2054 107.164C64.3761 107.178 63.5766 107.475 62.9404 108.007C62.3041 108.539 61.8697 109.273 61.7098 110.087H57.2324V70.9065H63.5543C63.7381 71.813 64.2532 72.6184 64.9989 73.1655C65.7446 73.7127 66.6675 73.9623 67.5873 73.8657C68.5072 73.769 69.358 73.3331 69.9737 72.6429C70.5895 71.9527 70.9259 71.0579 70.9174 70.133C70.9174 66.6002 75.2609 61.0593 80.5787 55.4663C83.2339 52.6698 85.9932 49.8435 88.217 46.8685C89.7417 44.8232 90.3069 42.3614 91.0061 39.9665C91.4017 39.6227 91.7202 39.1991 91.9407 38.7236C92.1611 38.2481 92.2786 37.7313 92.2853 37.2072V26.6311ZM34.8753 52.2235H49.7949V120.686H34.8753V52.2235ZM115.684 60.3006H135.311C137.572 60.3006 139.261 61.9964 139.261 64.2425C139.261 66.4738 137.572 68.1769 135.311 68.1769H115.676C115.154 68.1901 114.634 68.0973 114.149 67.9041C113.664 67.711 113.222 67.4215 112.852 67.0531C112.481 66.6847 112.189 66.2451 111.993 65.7608C111.798 65.2764 111.702 64.7574 111.712 64.2351C111.712 62.0038 113.43 60.3006 115.684 60.3006ZM111.675 75.8004H135.43C135.944 75.7949 136.454 75.894 136.929 76.0916C137.403 76.2893 137.833 76.5813 138.191 76.9499C138.549 77.3186 138.829 77.7562 139.012 78.2362C139.196 78.7162 139.281 79.2286 139.261 79.7423C139.28 80.2553 139.195 80.7669 139.01 81.246C138.826 81.7251 138.546 82.1619 138.188 82.5297C137.83 82.8976 137.401 83.1889 136.927 83.386C136.453 83.5832 135.944 83.6821 135.43 83.6767H111.675C111.161 83.6821 110.651 83.583 110.177 83.3854C109.702 83.1878 109.273 82.8958 108.914 82.5271C108.556 82.1585 108.277 81.7209 108.093 81.2408C107.909 80.7608 107.824 80.2485 107.845 79.7348C107.825 79.2218 107.911 78.7102 108.095 78.2311C108.279 77.7519 108.559 77.3152 108.917 76.9474C109.275 76.5795 109.704 76.2882 110.178 76.091C110.652 75.8939 111.162 75.795 111.675 75.8004ZM110.924 91.5084H132.292C133.809 91.5084 135.371 92.9736 135.371 95.4428C135.371 97.9046 133.809 99.3847 132.292 99.3847H110.916C109.392 99.3847 107.837 97.9046 107.837 95.4428C107.837 92.9736 109.399 91.5009 110.916 91.5009L110.924 91.5084ZM110.165 107.008H129.168C129.986 107.008 131.488 108.272 131.488 110.943C131.488 113.605 129.986 114.884 129.168 114.884H110.165C109.347 114.884 107.845 113.605 107.845 110.943C107.845 108.28 109.347 107.001 110.165 107.001V107.008ZM42.0227 108.778C40.8922 108.857 39.8339 109.362 39.062 110.191C38.2902 111.019 37.8624 112.109 37.8651 113.241C37.8661 113.827 37.9827 114.407 38.2082 114.948C38.4338 115.489 38.7639 115.98 39.1796 116.394C39.5954 116.808 40.0887 117.136 40.6314 117.359C41.1741 117.582 41.7555 117.697 42.3425 117.696C43.5267 117.694 44.6618 117.223 45.4984 116.386C46.3351 115.549 46.805 114.416 46.805 113.233C46.805 112.051 46.3351 110.917 45.4984 110.08C44.6618 109.244 43.5267 108.773 42.3425 108.771C42.2359 108.767 42.1293 108.774 42.0227 108.778Z" fill="black"/>
</svg>
