<svg width="60" height="34" viewBox="0 0 60 34" fill="none" xmlns="http://www.w3.org/2000/svg">
<path d="M21.7955 26.52C21.9021 26.28 21.9555 26.0267 21.9555 25.76C21.9555 25.1733 21.6355 24.7467 20.9955 24.48C20.3821 24.2133 19.5288 24.08 18.4355 24.08C16.7821 24.08 15.3288 24.32 14.0755 24.8C12.8221 25.28 12.0088 26.0133 11.6355 27C11.5288 27.3733 11.4755 27.6133 11.4755 27.72C11.4755 28.3867 11.8621 28.8667 12.6355 29.16C13.4355 29.4533 14.4755 29.5733 15.7555 29.52C17.3021 29.4133 18.6088 29.12 19.6755 28.64C20.7688 28.16 21.4755 27.4533 21.7955 26.52ZM0.155469 15.64L14.0355 13.76V12.28L11.8355 12.44L10.1955 12.6C9.10214 12.68 8.1688 12.4267 7.39547 11.84C6.62214 11.2267 6.23547 10.4667 6.23547 9.56V2.28L25.3155 0.32V4.2L11.8355 5.36V8.28L25.3155 6.48V11.36L19.3555 11.84V13.04L31.7155 11.36V17.08L0.155469 20.28V15.64ZM4.91547 27.08C4.91547 24.8933 5.99547 23.2533 8.15547 22.16C10.3155 21.04 13.1555 20.4133 16.6755 20.28C20.2221 20.2 23.0755 20.6667 25.2355 21.68C27.4221 22.6667 28.5155 24.2667 28.5155 26.48C28.5155 28.7733 27.3288 30.4667 24.9555 31.56C22.5821 32.68 19.5155 33.24 15.7555 33.24C12.5021 33.24 9.87547 32.7333 7.87547 31.72C5.90214 30.7333 4.91547 29.1867 4.91547 27.08ZM52.7595 19.6C51.7462 22.4267 50.8929 24.4533 50.1995 25.68C53.3729 26.3733 56.5195 27.1067 59.6395 27.88L56.0795 32.64C52.6129 31.68 49.4529 30.7867 46.5995 29.96C45.0795 31.0267 42.8929 31.8667 40.0395 32.48C38.9195 32.72 37.8795 32.84 36.9195 32.84C35.6129 32.84 34.4662 32.64 33.4795 32.24C32.5195 31.8667 31.7862 31.3467 31.2795 30.68C30.7729 30.04 30.5195 29.3333 30.5195 28.56C30.5195 27.12 31.1995 25.9867 32.5595 25.16C33.9462 24.3067 35.9329 23.88 38.5195 23.88C39.7462 23.88 41.4395 24.0533 43.5995 24.4C44.3729 23.0667 44.9329 21.68 45.2795 20.24L52.7595 19.6ZM35.4395 28.36C35.4395 28.6267 35.5595 28.84 35.7995 29C36.0662 29.16 36.4395 29.24 36.9195 29.24C37.5595 29.24 38.3729 29.04 39.3595 28.64C39.6795 28.48 40.0262 28.2933 40.3995 28.08L39.4795 27.72C38.8662 27.4533 38.2262 27.32 37.5595 27.32C36.9462 27.32 36.4395 27.4267 36.0395 27.64C35.6395 27.8267 35.4395 28.0667 35.4395 28.36ZM51.3595 18.6V1.96L57.8795 1.08V17.84L51.3595 18.6ZM42.3995 10.32C42.4529 9.78667 42.4795 9.41333 42.4795 9.2C42.4795 8.21333 42.2929 7.49333 41.9195 7.04C41.5729 6.56 41.0929 6.32 40.4795 6.32C39.5729 6.32 38.7862 6.70667 38.1195 7.48C37.4795 8.25333 37.0395 9.44 36.7995 11.04C36.7462 11.5733 36.7195 11.9333 36.7195 12.12C36.7195 13.1067 36.9062 13.84 37.2795 14.32C37.6529 14.8 38.1462 15.04 38.7595 15.04C39.6395 15.04 40.3995 14.6533 41.0395 13.88C41.7062 13.08 42.1595 11.8933 42.3995 10.32ZM31.1595 11.04C31.1595 8.05333 32.0129 5.85333 33.7195 4.44C35.4529 3.02666 37.6662 2.32 40.3595 2.32C42.6795 2.32 44.5329 2.97333 45.9195 4.28C47.3329 5.58667 48.0395 7.58667 48.0395 10.28C48.0395 13.2667 47.1862 15.4667 45.4795 16.88C43.7729 18.2933 41.5595 19 38.8395 19C36.5195 19 34.6529 18.36 33.2395 17.08C31.8529 15.7733 31.1595 13.76 31.1595 11.04Z" fill="#5FC3C8"/>
</svg>
